<svg xmlns="http://www.w3.org/2000/svg" width="32.152" height="21.388" viewBox="0 0 32.152 21.388">
  <g id="Group_906" data-name="Group 906" transform="translate(-1004 -487.015)">
    <g id="Group_160" data-name="Group 160" transform="translate(1005 488.015)">
      <g id="Group_159" data-name="Group 159" transform="translate(0)">
        <path id="Path_5" data-name="Path 5" d="M-470.213,245.151h0a3.174,3.174,0,0,1,3.174-3.174h7.2v-4.195a2.325,2.325,0,0,0-2.325-2.325h-24.628a2.325,2.325,0,0,0-2.325,2.325V252.52a2.325,2.325,0,0,0,2.325,2.325h24.628a2.325,2.325,0,0,0,2.325-2.325v-4.195h-7.2A3.174,3.174,0,0,1-470.213,245.151Z" transform="translate(489.116 -235.457)" fill="none" stroke="#363535" stroke-miterlimit="10" stroke-width="2"/>
        <path id="Path_6" data-name="Path 6" d="M-120.116,323.979h.873v-6.348h-.873" transform="translate(149.395 -311.111)" fill="none" stroke="#363535" stroke-miterlimit="10" stroke-width="2"/>
      </g>
      <path id="Path_7" data-name="Path 7" d="M1.138,0A1.138,1.138,0,1,1,0,1.138,1.138,1.138,0,0,1,1.138,0Z" transform="translate(21.287 8.556)" fill="#363535"/>
    </g>
  </g>
</svg>
